<svg width="252" height="222" viewBox="0 0 252 222" fill="none" xmlns="http://www.w3.org/2000/svg">
<path fill-rule="evenodd" clip-rule="evenodd" d="M126.45 42.8996L181.1 2.05536C181.599 1.71806 181.713 1.6138 182.254 1.34703C183.067 0.948396 183.953 0.696952 184.855 0.61416C185.079 0.592695 185.307 0.592695 185.532 0.583496C185.756 0.592695 185.984 0.604961 186.209 0.61416C187.122 0.739882 187.978 0.93613 188.809 1.34703C189.35 1.6138 189.464 1.71806 189.963 2.05536L249.044 46.2113C249.58 46.6528 250.075 47.0944 250.497 47.6494C251.186 48.5571 251.66 49.6211 251.872 50.7403C251.983 51.3383 251.971 51.4946 251.998 52.0987V125.692C251.968 126.385 251.906 127.041 251.715 127.713C251.401 128.807 250.829 129.825 250.057 130.663C249.647 131.113 249.512 131.193 249.044 131.579L189.963 175.735L130.881 219.891C130.312 220.278 129.752 220.624 129.106 220.872C127.407 221.522 125.493 221.522 123.794 220.872C123.148 220.624 122.588 220.278 122.019 219.891L62.9372 175.735L3.8556 131.579C3.38787 131.193 3.25247 131.113 2.84321 130.663C2.07084 129.825 1.49849 128.807 1.18461 127.713C0.99383 127.041 0.932286 126.385 0.898438 125.692V52.0987C0.929209 51.4946 0.916901 51.3383 1.02768 50.7403C1.24 49.6211 1.71389 48.5571 2.40317 47.6494C2.82474 47.0944 3.32017 46.6528 3.8556 46.2113L62.9372 2.05536C63.4357 1.71806 63.5496 1.6138 64.0912 1.34703C64.9035 0.948396 65.7898 0.696952 66.6914 0.61416C66.916 0.592695 67.1406 0.592695 67.3683 0.583496C67.593 0.592695 67.8207 0.604961 68.0453 0.61416C68.6423 0.696952 68.7961 0.696952 69.3777 0.862537C70.2701 1.11398 71.0394 1.54021 71.7995 2.05536L126.45 42.8996ZM173.223 169.848L148.196 151.143L126.45 134.891L79.677 169.848L126.45 204.805L173.223 169.848ZM237.228 66.8174L192.917 99.9343V155.129L237.228 122.012V66.8174ZM108.569 74.6612L74.7535 99.9343V155.129L119.065 122.012V66.8174L108.569 74.6612ZM15.6719 122.012L59.9831 155.129V99.9343L15.6719 66.8174V122.012ZM133.835 122.012L157.059 139.368L178.146 155.129V99.9343L133.835 66.8174V122.012ZM138.759 52.0987L185.532 87.0555L232.305 52.0987L185.532 17.142L138.759 52.0987ZM20.5954 52.0987L67.3683 87.0555L99.7063 62.8863L114.141 52.0987L67.3683 17.142L20.5954 52.0987Z" fill="#FAF5F1"/>
</svg>
